<?xml version="1.0" standalone="no"?>
<!DOCTYPE svg PUBLIC "-//W3C//DTD SVG 20010904//EN"
 "http://www.w3.org/TR/2001/REC-SVG-20010904/DTD/svg10.dtd">
<svg version="1.0" xmlns="http://www.w3.org/2000/svg"
 width="512.000000pt" height="512.000000pt" viewBox="0 0 512.000000 512.000000"
 preserveAspectRatio="xMidYMid meet">
<metadata>
Created by potrace 1.14, written by Peter Selinger 2001-2017
</metadata>
<g transform="translate(0.000000,512.000000) scale(0.100000,-0.100000)"
fill="#000000" stroke="none">
<path d="M687 5106 c-62 -22 -103 -57 -139 -115 l-33 -55 -2 -1333 c-3 -1281
-2 -1335 16 -1383 31 -82 83 -133 163 -159 52 -17 3685 -17 3737 0 64 21 119
69 149 128 l27 56 2 1330 c1 1290 1 1332 -18 1381 -22 58 -65 106 -123 137
l-41 22 -1850 2 c-1536 2 -1856 0 -1888 -11z m3408 -1138 c0 -351 0 -638 -1
-638 -1 0 -60 45 -89 68 -5 4 -104 79 -220 167 -115 87 -236 179 -267 203 -73
55 -133 76 -202 69 -84 -8 -84 -8 -376 -247 -91 -74 -215 -175 -276 -225 -61
-49 -167 -136 -236 -192 l-124 -101 -328 239 c-181 131 -348 246 -373 255 -98
38 -148 22 -382 -119 -105 -64 -192 -113 -192 -109 -4 17 -5 1258 -2 1264 2 4
693 6 1536 5 l1532 -2 0 -637z"/>
<path d="M707 1528 c-70 -15 -137 -69 -170 -138 -22 -44 -22 -53 -24 -610 -1
-536 -1 -568 18 -616 34 -90 111 -148 212 -160 107 -13 204 42 253 143 l28 56
0 566 c0 547 -1 568 -21 611 -51 113 -174 175 -296 148z"/>
<path d="M2159 1519 c-115 -23 -187 -52 -272 -109 -364 -245 -459 -713 -216
-1074 71 -104 195 -211 309 -263 127 -58 302 -87 390 -63 114 31 192 137 186
253 -7 144 -100 237 -251 249 -138 12 -233 106 -243 241 -11 145 98 261 255
273 188 13 302 220 208 380 -68 115 -182 151 -366 113z"/>
<path d="M3778 1535 c-2 -1 -26 -5 -53 -9 -104 -12 -248 -72 -341 -142 -248
-186 -360 -495 -289 -799 51 -222 223 -424 440 -521 145 -64 335 -79 492 -39
212 54 400 204 496 397 64 130 81 205 81 358 -1 288 -164 544 -429 675 -105
52 -192 74 -310 79 -46 2 -85 2 -87 1z m155 -534 c96 -44 159 -151 151 -254
-12 -145 -160 -260 -291 -228 -195 49 -263 290 -122 430 71 70 177 91 262 52z"/>
</g>
</svg>
